<svg xmlns="http://www.w3.org/2000/svg" viewBox="0 0 24 24" width="256" height="256">
  <rect width="24" height="24"     fill="none"/>
  
<path stroke="#e4e4e4" stroke-width="0.5px" fill="#000000" d="M22.222,16.242c-.193-.044-4.788-1.085-10.224-1.085s-10.03,1.041-10.223,1.085c-.539,.123-.863,.657-.751,1.198,.11,.533,.632,.861,1.198,.751,.046-.009,4.588-1.035,9.777-1.035s9.731,1.024,9.776,1.035c.542,.125,1.075-.213,1.198-.751s-.212-1.075-.75-1.198Z"/>
  <path stroke="#7c7c7c" stroke-width="0.5px" fill="#000000" d="M22.222,11.555c-.193-.044-4.788-1.085-10.224-1.085S1.968,11.51,1.775,11.555c-.539,.123-.863,.657-.751,1.198,.11,.533,.632,.861,1.198,.751,.046-.009,4.588-1.035,9.777-1.035s9.731,1.024,9.776,1.035c.542,.125,1.075-.213,1.198-.751s-.212-1.075-.75-1.198Z"/>
  <path stroke="#7c7c7c" stroke-width="0.5px" fill="#000000" d="M22.222,6.868c-.193-.044-4.788-1.085-10.224-1.085S1.968,6.824,1.775,6.868c-.539,.123-.863,.657-.751,1.198,.11,.533,.632,.861,1.198,.751,.046-.009,4.588-1.035,9.777-1.035s9.731,1.024,9.776,1.035c.542,.125,1.075-.213,1.198-.751s-.212-1.075-.75-1.198Z"/>
</svg>
