<svg xmlns="http://www.w3.org/2000/svg" viewBox="0 0 24 24" width="256" height="256">
  <rect width="24" height="24"    fill="none"/>

  <path stroke="#e4e4e4" stroke-width="0.5px" fill="#000000" d="M16,4l2.67-1.33,1.33-2.67,1.33,2.67,2.67,1.33-2.67,1.33-1.33,2.67-1.33-2.67-2.67-1.33Zm-.5,2l-1.17,2.33-2.33,1.17,2.33,1.17,1.17,2.33,1.17-2.33,2.33-1.17-2.33-1.17-1.17-2.33Zm8.5,18H0V3.5C0,1.57,1.57,0,3.5,0h14.26l-.59,1.18-3.65,1.82H3.5c-.28,0-.5,.22-.5,.5v6.38l2-2,9,9,4-4,3,3v-5.41l1.82-3.65,1.18-.59V24ZM3,21H13.88L5,12.12l-2,2v6.88Zm18,0v-.88l-3-3-3.88,3.88h6.88ZM8,6.5c0,.83,.67,1.5,1.5,1.5s1.5-.67,1.5-1.5-.67-1.5-1.5-1.5-1.5,.67-1.5,1.5Z"/></svg>
